<svg xmlns="http://www.w3.org/2000/svg" version="1.1" xmlns:xlink="http://www.w3.org/1999/xlink" xmlns:svgjs="http://svgjs.dev/svgjs" width="2000" height="373" viewBox="0 0 2000 373"><g transform="matrix(1,0,0,1,-1.2121212121212466,-1.4756812286564696)"><svg viewBox="0 0 396 74" data-background-color="#000000" preserveAspectRatio="xMidYMid meet" height="373" width="2000" xmlns="http://www.w3.org/2000/svg" xmlns:xlink="http://www.w3.org/1999/xlink"><g id="tight-bounds" transform="matrix(1,0,0,1,0.2400000000000091,0.2927624957656292)"><svg viewBox="0 0 395.52 73.41447500846876" height="73.41447500846876" width="395.52"><g><svg viewBox="0 0 505.342054272 93.79910400000001" height="73.41447500846876" width="395.52"><g transform="matrix(1,0,0,1,109.822054272,12.963552000000007)"><svg viewBox="0 0 395.52 67.872" height="67.872" width="395.52"><g id="textblocktransform"><svg viewBox="0 0 395.52 67.872" height="67.872" width="395.52" id="textblock"><g><svg viewBox="0 0 395.52 67.872" height="67.872" width="395.52"><g transform="matrix(1,0,0,1,0,0)"><svg width="395.52" viewBox="3.45 -34.9 205.99 35.35" height="67.872" data-palette-color="#c4f649"><path d="M15.65-34.9Q21.15-34.9 25.33-32.75 29.5-30.6 31.78-26.63 34.05-22.65 34.05-17.4L34.05-17.4Q34.05-12.15 31.78-8.22 29.5-4.3 25.33-2.15 21.15 0 15.65 0L15.65 0 3.45 0 3.45-34.9 15.65-34.9ZM15.4-5.95Q20.9-5.95 23.9-8.95 26.9-11.95 26.9-17.4L26.9-17.4Q26.9-22.85 23.9-25.93 20.9-29 15.4-29L15.4-29 10.45-29 10.45-5.95 15.4-5.95ZM51.6 0.45Q47.6 0.45 44.4-1.33 41.2-3.1 39.37-6.35 37.55-9.6 37.55-13.85L37.55-13.85Q37.55-18.1 39.42-21.35 41.3-24.6 44.55-26.38 47.8-28.15 51.8-28.15L51.8-28.15Q55.8-28.15 59.05-26.38 62.3-24.6 64.17-21.35 66.05-18.1 66.05-13.85L66.05-13.85Q66.05-9.6 64.12-6.35 62.2-3.1 58.92-1.33 55.65 0.45 51.6 0.45L51.6 0.45ZM51.6-5.65Q53.5-5.65 55.17-6.58 56.85-7.5 57.85-9.35 58.85-11.2 58.85-13.85L58.85-13.85Q58.85-17.8 56.77-19.93 54.7-22.05 51.7-22.05L51.7-22.05Q48.7-22.05 46.67-19.93 44.65-17.8 44.65-13.85L44.65-13.85Q44.65-9.9 46.62-7.78 48.6-5.65 51.6-5.65L51.6-5.65ZM69.4-13.85Q69.4-18.15 71.15-21.38 72.9-24.6 76-26.38 79.09-28.15 83.09-28.15L83.09-28.15Q88.25-28.15 91.62-25.58 95-23 96.15-18.35L96.15-18.35 88.59-18.35Q88-20.15 86.57-21.18 85.15-22.2 83.05-22.2L83.05-22.2Q80.05-22.2 78.3-20.03 76.55-17.85 76.55-13.85L76.55-13.85Q76.55-9.9 78.3-7.73 80.05-5.55 83.05-5.55L83.05-5.55Q87.3-5.55 88.59-9.35L88.59-9.35 96.15-9.35Q95-4.85 91.59-2.2 88.2 0.45 83.09 0.45L83.09 0.45Q79.09 0.45 76-1.33 72.9-3.1 71.15-6.33 69.4-9.55 69.4-13.85L69.4-13.85ZM114.59-34.9L121.64-34.9 121.64-10.4Q121.64-5.3 118.69-2.48 115.74 0.35 110.79 0.35L110.79 0.35Q105.79 0.35 102.72-2.55 99.64-5.45 99.64-10.65L99.64-10.65 106.64-10.65Q106.69-8.4 107.72-7.15 108.74-5.9 110.69-5.9L110.69-5.9Q112.59-5.9 113.59-7.1 114.59-8.3 114.59-10.4L114.59-10.4 114.59-34.9ZM127.99-13.95Q127.99-18.15 129.66-21.4 131.34-24.65 134.22-26.4 137.09-28.15 140.64-28.15L140.64-28.15Q143.74-28.15 146.06-26.9 148.39-25.65 149.79-23.75L149.79-23.75 149.79-27.7 156.84-27.7 156.84 0 149.79 0 149.79-4.05Q148.44-2.1 146.06-0.83 143.69 0.45 140.59 0.45L140.59 0.45Q137.09 0.45 134.22-1.35 131.34-3.15 129.66-6.43 127.99-9.7 127.99-13.95L127.99-13.95ZM149.79-13.85Q149.79-16.4 148.79-18.23 147.79-20.05 146.09-21.03 144.39-22 142.44-22L142.44-22Q140.49-22 138.84-21.05 137.19-20.1 136.16-18.28 135.14-16.45 135.14-13.95L135.14-13.95Q135.14-11.45 136.16-9.58 137.19-7.7 138.87-6.7 140.54-5.7 142.44-5.7L142.44-5.7Q144.39-5.7 146.09-6.68 147.79-7.65 148.79-9.47 149.79-11.3 149.79-13.85L149.79-13.85ZM198.09-28.1Q203.19-28.1 206.31-24.98 209.44-21.85 209.44-16.25L209.44-16.25 209.44 0 202.44 0 202.44-15.3Q202.44-18.55 200.79-20.28 199.14-22 196.29-22L196.29-22Q193.44-22 191.76-20.28 190.09-18.55 190.09-15.3L190.09-15.3 190.09 0 183.09 0 183.09-15.3Q183.09-18.55 181.44-20.28 179.79-22 176.94-22L176.94-22Q174.04-22 172.36-20.28 170.69-18.55 170.69-15.3L170.69-15.3 170.69 0 163.69 0 163.69-27.7 170.69-27.7 170.69-24.35Q172.04-26.1 174.16-27.1 176.29-28.1 178.84-28.1L178.84-28.1Q182.09-28.1 184.64-26.73 187.19-25.35 188.59-22.8L188.59-22.8Q189.94-25.2 192.51-26.65 195.09-28.1 198.09-28.1L198.09-28.1Z" opacity="1" transform="matrix(1,0,0,1,0,0)" fill="#c4f649" class="wordmark-text-0" data-fill-palette-color="primary" id="text-0"></path></svg></g></svg></g></svg></g></svg></g><g><svg viewBox="0 0 93.799104 93.79910400000001" height="93.79910400000001" width="93.799104"><g><svg></svg></g><g id="icon-0"><svg viewBox="0 0 93.799104 93.79910400000001" height="93.79910400000001" width="93.799104"><g><path transform="scale(0.93799,0.93799)" d="M30 100c-16.569 0-30-13.431-30-30v-40c0-16.569 13.431-30 30-30h40c16.569 0 30 13.431 30 30v40c0 16.569-13.431 30-30 30z" fill="#c4f649" fill-rule="nonzero" stroke="none" stroke-width="1" stroke-linecap="butt" stroke-linejoin="miter" stroke-miterlimit="10" stroke-dasharray="" stroke-dashoffset="0" font-family="none" font-weight="none" font-size="none" text-anchor="none" style="mix-blend-mode: normal" data-fill-palette-color="accent"></path></g><g transform="matrix(1,0,0,1,22.277287199999996,18.759820800000004)"><svg viewBox="0 0 49.24452960000001 56.27946240000001" height="56.27946240000001" width="49.24452960000001"><g><svg xmlns="http://www.w3.org/2000/svg" xmlns:xlink="http://www.w3.org/1999/xlink" version="1.1" x="0" y="0" viewBox="0 0 28 32" style="enable-background:new 0 0 28 32;" xml:space="preserve" height="56.27946240000001" width="49.24452960000001" class="icon-dxe-0" data-fill-palette-color="quaternary" id="dxe-0"><g fill="#000000" data-fill-palette-color="quaternary"><g fill="#000000" data-fill-palette-color="quaternary"><g fill="#000000" data-fill-palette-color="quaternary"><path d="M23 15H1C0.45 15 0 15.45 0 16V26C0 26.55 0.45 27 1 27H23C23.551 27 24 26.55 24 26V16C24 15.45 23.551 15 23 15M5.689 24H3.786C3.522 24 3.234 23.855 3.234 23.504V18.963C3.234 18.675 3.522 18.467 3.786 18.467H5.617C9.271 18.467 9.191 24 5.689 24M12.25 24.08C10.771 24.144 9.235 23.16 9.235 21.201 9.235 19.234 10.77 18.267 12.25 18.267 13.649 18.338 15.113 19.306 15.113 21.201S13.65 24.08 12.25 24.08M20.756 23.432C20.195 23.953 19.524 24.057 18.86 24.057 16.926 24.057 16.053 22.737 16.053 21.194S17.022 18.324 18.86 18.324C19.557 18.324 20.108 18.532 20.692 19.036 20.907 19.235 20.932 19.587 20.715 19.811A0.543 0.543 0 0 1 19.979 19.787C19.653 19.443 19.317 19.348 18.86 19.348 17.63 19.348 17.038 20.22 17.038 21.195 17.038 22.187 17.622 23.098 18.86 23.098 19.317 23.098 19.741 22.913 20.108 22.586A0.54 0.54 0 0 1 20.844 22.682C20.971 22.856 21.035 23.152 20.756 23.432" fill="#000000" data-fill-palette-color="quaternary"></path><path d="M12.163 19.307C11.267 19.307 10.292 19.939 10.292 21.202 10.292 22.458 11.268 23.098 12.163 23.098 13.083 23.098 14.066 22.458 14.066 21.202 14.066 19.938 13.083 19.307 12.163 19.307" fill="#000000" data-fill-palette-color="quaternary"></path><path d="M5.617 19.442H4.29V23.024H5.617C7.776 23.024 7.872 19.442 5.617 19.442" fill="#000000" data-fill-palette-color="quaternary"></path></g><path d="M27 7.586L20.414 1C19.836 0.42 18.82 0 18 0H7C5.346 0 4 1.346 4 3V13A1 1 0 1 0 6 13V3C6 2.449 6.448 2 7 2H16A2 2 0 0 1 18 4V7.75A2.257 2.257 0 0 0 20.25 10H24A2 2 0 0 1 26 12V29A1 1 0 0 1 25 30H7C6.448 30 6 29.551 6 29A1 1 0 1 0 4 29C4 30.654 5.346 32 7 32H25C26.654 32 28 30.654 28 29V10C28 9.181 27.58 8.165 27 7.586" fill="#000000" data-fill-palette-color="quaternary"></path></g></g></svg></g></svg></g></svg></g></svg></g></svg></g><defs></defs></svg><rect width="395.52" height="73.41447500846876" fill="none" stroke="none" visibility="hidden"></rect></g></svg></g></svg>